<svg xmlns="http://www.w3.org/2000/svg" viewBox="0 0 269.8 240.37"><defs><style>.cls-1{isolation:isolate;}.cls-2{fill:#fff;stroke:#231f20;}.cls-2,.cls-8{stroke-miterlimit:10;stroke-width:2px;}.cls-3,.cls-6{fill:#cec1a3;}.cls-4{fill:#758467;}.cls-5{fill:#f2ebdd;}.cls-6,.cls-7{mix-blend-mode:multiply;}.cls-6{opacity:0.3;}.cls-7{fill:#ac8746;opacity:0.4;}.cls-8{fill:none;stroke:#f2ebdd;stroke-linecap:round;}</style></defs><g class="cls-1"><g id="BACKGROUND"><path class="cls-2" d="M160.47,67.87c2.1-5.91-5.56-13.52-9.51-16.49a26.93,26.93,0,0,0-32.26.49c-4.35,3.44-11.67,11.61-9.25,17.43C114.26,80.87,156.27,79.72,160.47,67.87Z"/></g><g id="OBJECTS"><path class="cls-3" d="M92.56,150.29,127,91.7a12.61,12.61,0,0,0-.52-13.61L114.3,60.49a12.64,12.64,0,0,0-15.45-4.36L31.19,85.79a12.63,12.63,0,0,0-7,7.73L2.34,162a12.62,12.62,0,0,0,3.1,12.77l17.45,17.45a12.63,12.63,0,0,0,20.56-4h0c4.8-11.26,21.21-9.8,23.94,2.13l8.13,35.5A12.63,12.63,0,0,0,96,232.71L121.7,211a12.65,12.65,0,0,0,.57-18.78L94.71,165.83A12.65,12.65,0,0,1,92.56,150.29Z"/><path class="cls-4" d="M170.35,55.87l68.58,30.06a11.87,11.87,0,0,1,6.53,7.25l22.14,69.31a11.81,11.81,0,0,1-2.91,12l-18.62,18.62a11.85,11.85,0,0,1-19.27-3.74L225.39,186c-4.5-10.56-19.88-9.19-22.44,2l-9,39.15a11.84,11.84,0,0,1-19.19,6.4L95.14,166.15a11.84,11.84,0,0,1-2.08-15.79L155.87,60A11.84,11.84,0,0,1,170.35,55.87Z"/><path class="cls-5" d="M111.76,155.81a7.48,7.48,0,1,1-7.48-7.48A7.48,7.48,0,0,1,111.76,155.81Z"/><polygon class="cls-6" points="58.7 152.43 25.96 88.08 0 169.36 58.7 152.43"/><polygon class="cls-7" points="211.1 152.43 243.83 88.08 269.8 169.36 211.1 152.43"/><line class="cls-8" x1="104.28" y1="155.81" x2="192.47" y2="155.81"/></g></g></svg>